<?xml version="1.0" encoding="UTF-8" standalone="no"?>
<svg
   xmlns:dc="http://purl.org/dc/elements/1.1/"
   xmlns:cc="http://creativecommons.org/ns#"
   xmlns:rdf="http://www.w3.org/1999/02/22-rdf-syntax-ns#"
   xmlns:svg="http://www.w3.org/2000/svg"
   xmlns="http://www.w3.org/2000/svg"
   xmlns:sodipodi="http://sodipodi.sourceforge.net/DTD/sodipodi-0.dtd"
   xmlns:inkscape="http://www.inkscape.org/namespaces/inkscape"
   version="1.1"
   viewBox="0.0 0.0 800.0 279.0"
   fill="none"
   stroke="none"
   stroke-linecap="square"
   stroke-miterlimit="10"
   width="800"
   height="279"
   id="svg85"
   sodipodi:docname="Charts_image_by_region_diagram.svg"
   inkscape:version="1.0 (4035a4fb49, 2020-05-01)">
  <metadata
     id="metadata91">
    <rdf:RDF>
      <cc:Work
         rdf:about="">
        <dc:format>image/svg+xml</dc:format>
        <dc:type
           rdf:resource="http://purl.org/dc/dcmitype/StillImage" />
        <dc:title />
      </cc:Work>
    </rdf:RDF>
  </metadata>
  <defs
     id="defs89" />
  <sodipodi:namedview
     inkscape:document-rotation="0"
     pagecolor="#ffffff"
     bordercolor="#666666"
     borderopacity="1"
     objecttolerance="10"
     gridtolerance="10"
     guidetolerance="10"
     inkscape:pageopacity="1"
     inkscape:pageshadow="2"
     inkscape:window-width="1920"
     inkscape:window-height="1057"
     id="namedview87"
     showgrid="false"
     inkscape:zoom="1.36625"
     inkscape:cx="400"
     inkscape:cy="139.5"
     inkscape:window-x="-8"
     inkscape:window-y="-8"
     inkscape:window-maximized="1"
     inkscape:current-layer="svg85" />
  <path
     fill="#ffffff"
     d="M0 0L800.0 0L800.0 279.0L0 279.0L0 0Z"
     fill-rule="nonzero"
     id="path2" />
  <path
     stroke="#333333"
     stroke-width="1.0"
     stroke-linecap="butt"
     d="M80.5 199.5L786.5 199.5"
     fill-rule="nonzero"
     id="path4" />
  <path
     stroke="#cccccc"
     stroke-width="1.0"
     stroke-linecap="butt"
     d="M80.5 160.5L786.5 160.5"
     fill-rule="nonzero"
     id="path6" />
  <path
     stroke="#cccccc"
     stroke-width="1.0"
     stroke-linecap="butt"
     d="M80.5 122.5L786.5 122.5"
     fill-rule="nonzero"
     id="path8" />
  <path
     stroke="#cccccc"
     stroke-width="1.0"
     stroke-linecap="butt"
     d="M80.5 84.5L786.5 84.5"
     fill-rule="nonzero"
     id="path10" />
  <path
     stroke="#cccccc"
     stroke-width="1.0"
     stroke-linecap="butt"
     d="M80.5 46.5L786.5 46.5"
     fill-rule="nonzero"
     id="path12" />
  <clipPath
     id="id_0">
    <path
       d="M80.95 46.25L786.05 46.25L786.05 199.05L80.95 199.05L80.95 46.25Z"
       clip-rule="nonzero"
       id="path14" />
  </clipPath>
  <path
     stroke="#000000"
     stroke-width="0.0"
     stroke-linecap="butt"
     stroke-opacity="0.0"
     clip-path="url(#id_0)"
     d="M199.0 199.0L154.0 199.0L154.0 182.0C154.0 180.89543 154.89543 180.0 156.0 180.0L197.0 180.0C198.10457 180.0 199.0 180.89543 199.0 182.0Z"
     fill-rule="nonzero"
     id="path17" />
  <path
     fill="#4285f4"
     clip-path="url(#id_0)"
     d="M199.0 199.0L154.0 199.0L154.0 182.0C154.0 180.89543 154.89543 180.0 156.0 180.0L197.0 180.0C198.10457 180.0 199.0 180.89543 199.0 182.0Z"
     fill-rule="nonzero"
     id="path19"
     style="fill:#1d6b99;fill-opacity:1" />
  <path
     stroke="#000000"
     stroke-width="0.0"
     stroke-linecap="butt"
     stroke-opacity="0.0"
     clip-path="url(#id_0)"
     d="M410.0 199.0L365.0 199.0L365.0 144.0C365.0 142.89543 365.89542 142.0 367.0 142.0L408.0 142.0C409.10458 142.0 410.0 142.89543 410.0 144.0Z"
     fill-rule="nonzero"
     id="path21" />
  <path
     fill="#4285f4"
     clip-path="url(#id_0)"
     d="M410.0 199.0L365.0 199.0L365.0 144.0C365.0 142.89543 365.89542 142.0 367.0 142.0L408.0 142.0C409.10458 142.0 410.0 142.89543 410.0 144.0Z"
     fill-rule="nonzero"
     id="path23"
     style="fill:#1d6b99;fill-opacity:1" />
  <path
     stroke="#000000"
     stroke-width="0.0"
     stroke-linecap="butt"
     stroke-opacity="0.0"
     clip-path="url(#id_0)"
     d="M620.0 199.0L575.0 199.0L575.0 106.0C575.0 104.89543 575.89545 104.0 577.0 104.0L618.0 104.0C619.10455 104.0 620.0 104.89543 620.0 106.0Z"
     fill-rule="nonzero"
     id="path25" />
  <path
     fill="#4285f4"
     clip-path="url(#id_0)"
     d="M620.0 199.0L575.0 199.0L575.0 106.0C575.0 104.89543 575.89545 104.0 577.0 104.0L618.0 104.0C619.10455 104.0 620.0 104.89543 620.0 106.0Z"
     fill-rule="nonzero"
     id="path27"
     style="fill:#1d6b99;fill-opacity:1" />
  <path
     stroke="#000000"
     stroke-width="0.0"
     stroke-linecap="butt"
     stroke-opacity="0.0"
     clip-path="url(#id_0)"
     d="M245.0 199.0L200.0 199.0L200.0 163.0C200.0 161.89543 200.89543 161.0 202.0 161.0L243.0 161.0C244.10457 161.0 245.0 161.89543 245.0 163.0Z"
     fill-rule="nonzero"
     id="path29" />
  <path
     fill="#ea4335"
     clip-path="url(#id_0)"
     d="M245.0 199.0L200.0 199.0L200.0 163.0C200.0 161.89543 200.89543 161.0 202.0 161.0L243.0 161.0C244.10457 161.0 245.0 161.89543 245.0 163.0Z"
     fill-rule="nonzero"
     id="path31"
     style="fill:#cf4f3e;fill-opacity:1" />
  <path
     stroke="#000000"
     stroke-width="0.0"
     stroke-linecap="butt"
     stroke-opacity="0.0"
     clip-path="url(#id_0)"
     d="M456.0 199.0L411.0 199.0L411.0 125.0C411.0 123.89543 411.89542 123.0 413.0 123.0L454.0 123.0C455.10458 123.0 456.0 123.89543 456.0 125.0Z"
     fill-rule="nonzero"
     id="path33" />
  <path
     fill="#ea4335"
     clip-path="url(#id_0)"
     d="M456.0 199.0L411.0 199.0L411.0 125.0C411.0 123.89543 411.89542 123.0 413.0 123.0L454.0 123.0C455.10458 123.0 456.0 123.89543 456.0 125.0Z"
     fill-rule="nonzero"
     id="path35"
     style="fill:#cf4f3e;fill-opacity:1" />
  <path
     stroke="#000000"
     stroke-width="0.0"
     stroke-linecap="butt"
     stroke-opacity="0.0"
     clip-path="url(#id_0)"
     d="M666.0 199.0L621.0 199.0L621.0 86.0C621.0 84.89543 621.89545 84.0 623.0 84.0L664.0 84.0C665.10455 84.0 666.0 84.89543 666.0 86.0Z"
     fill-rule="nonzero"
     id="path37" />
  <path
     fill="#ea4335"
     clip-path="url(#id_0)"
     d="M666.0 199.0L621.0 199.0L621.0 86.0C621.0 84.89543 621.89545 84.0 623.0 84.0L664.0 84.0C665.10455 84.0 666.0 84.89543 666.0 86.0Z"
     fill-rule="nonzero"
     id="path39"
     style="fill:#cf4f3e;fill-opacity:1" />
  <path
     stroke="#000000"
     stroke-width="0.0"
     stroke-linecap="butt"
     stroke-opacity="0.0"
     clip-path="url(#id_0)"
     d="M291.0 199.0L246.0 199.0L246.0 144.0C246.0 142.89543 246.89543 142.0 248.0 142.0L289.0 142.0C290.10458 142.0 291.0 142.89543 291.0 144.0Z"
     fill-rule="nonzero"
     id="path41" />
  <path
     fill="#fbbc04"
     clip-path="url(#id_0)"
     d="M291.0 199.0L246.0 199.0L246.0 144.0C246.0 142.89543 246.89543 142.0 248.0 142.0L289.0 142.0C290.10458 142.0 291.0 142.89543 291.0 144.0Z"
     fill-rule="nonzero"
     id="path43"
     style="fill:#f0af07;fill-opacity:1" />
  <path
     stroke="#000000"
     stroke-width="0.0"
     stroke-linecap="butt"
     stroke-opacity="0.0"
     clip-path="url(#id_0)"
     d="M502.0 199.0L457.0 199.0L457.0 106.0C457.0 104.89543 457.89542 104.0 459.0 104.0L500.0 104.0C501.10458 104.0 502.0 104.89543 502.0 106.0Z"
     fill-rule="nonzero"
     id="path45" />
  <path
     fill="#fbbc04"
     clip-path="url(#id_0)"
     d="M502.0 199.0L457.0 199.0L457.0 106.0C457.0 104.89543 457.89542 104.0 459.0 104.0L500.0 104.0C501.10458 104.0 502.0 104.89543 502.0 106.0Z"
     fill-rule="nonzero"
     id="path47"
     style="fill:#f0af07;fill-opacity:1" />
  <path
     stroke="#000000"
     stroke-width="0.0"
     stroke-linecap="butt"
     stroke-opacity="0.0"
     clip-path="url(#id_0)"
     d="M712.0 199.0L667.0 199.0L667.0 67.0C667.0 65.89543 667.89545 65.0 669.0 65.0L710.0 65.0C711.10455 65.0 712.0 65.89543 712.0 67.0Z"
     fill-rule="nonzero"
     id="path49" />
  <path
     fill="#fbbc04"
     clip-path="url(#id_0)"
     d="M712.0 199.0L667.0 199.0L667.0 67.0C667.0 65.89543 667.89545 65.0 669.0 65.0L710.0 65.0C711.10455 65.0 712.0 65.89543 712.0 67.0Z"
     fill-rule="nonzero"
     id="path51"
     style="fill:#f0af07;fill-opacity:1" />
  <path
     fill="#000000"
     d="M37.332287 233.97389L37.113537 231.72389Q38.25416 231.52077 38.78541 230.89577Q39.31666 230.27077 39.31666 229.22389Q39.31666 228.09889 38.84791 227.53639Q38.363537 226.97389 37.738537 226.97389Q37.332287 226.97389 37.051037 227.20827Q36.75416 227.44264 36.551037 228.03639Q36.41041 228.44264 36.051037 229.89577Q35.582287 231.75514 34.91041 232.50514Q33.97291 233.55202 32.613537 233.55202Q31.738539 233.55202 30.972914 233.06764Q30.207289 232.56764 29.816664 231.63014Q29.410414 230.69264 29.410414 229.38014Q29.410414 227.22389 30.363539 226.13014Q31.301039 225.03639 32.87916 224.98952L32.988537 227.30202Q32.09791 227.44264 31.722914 227.94264Q31.332289 228.42702 31.332289 229.39577Q31.332289 230.41139 31.738539 230.97389Q32.00416 231.34889 32.457287 231.34889Q32.863537 231.34889 33.144787 231.00514Q33.519787 230.56764 33.926037 228.88014Q34.31666 227.19264 34.738537 226.38014Q35.16041 225.56764 35.91041 225.11452Q36.644787 224.66139 37.72291 224.66139Q38.707287 224.66139 39.56666 225.20827Q40.426037 225.75514 40.84791 226.75514Q41.269787 227.75514 41.269787 229.23952Q41.269787 231.41139 40.269787 232.58327Q39.25416 233.73952 37.332287 233.97389ZM38.426037 217.59889L38.78541 215.41139Q39.988537 215.83327 40.62916 216.73952Q41.25416 217.64577 41.25416 219.02077Q41.25416 221.17702 39.832287 222.22389Q38.707287 223.03639 36.97291 223.03639Q34.91041 223.03639 33.75416 221.95827Q32.582287 220.88014 32.582287 219.23952Q32.582287 217.38014 33.801037 216.31764Q35.019787 215.23952 37.551037 215.28639L37.551037 220.78639Q38.519787 220.77077 39.06666 220.27077Q39.613537 219.75514 39.613537 218.98952Q39.613537 218.47389 39.332287 218.13014Q39.051037 217.77077 38.426037 217.59889ZM36.207287 217.47389Q35.25416 217.48952 34.75416 217.95827Q34.25416 218.42702 34.25416 219.09889Q34.25416 219.81764 34.78541 220.28639Q35.301037 220.75514 36.207287 220.75514L36.207287 217.47389ZM41.06666 211.30202L41.06666 213.48952L32.769787 213.48952L32.769787 211.45827L33.94166 211.45827Q33.113537 210.92702 32.84791 210.52077Q32.582287 210.09889 32.582287 209.56764Q32.582287 208.81764 32.988537 208.11452L34.91041 208.80202Q34.551037 209.34889 34.551037 209.83327Q34.551037 210.28639 34.801037 210.61452Q35.051037 210.92702 35.72291 211.11452Q36.37916 211.30202 38.50416 211.30202L41.06666 211.30202ZM31.644789 207.39577L29.613539 207.39577L29.613539 205.20827L31.644789 205.20827L31.644789 207.39577ZM41.06666 207.39577L32.769787 207.39577L32.769787 205.20827L41.06666 205.20827L41.06666 207.39577ZM38.426037 198.59889L38.78541 196.41139Q39.988537 196.83327 40.62916 197.73952Q41.25416 198.64577 41.25416 200.02077Q41.25416 202.17702 39.832287 203.22389Q38.707287 204.03639 36.97291 204.03639Q34.91041 204.03639 33.75416 202.95827Q32.582287 201.88014 32.582287 200.23952Q32.582287 198.38014 33.801037 197.31764Q35.019787 196.23952 37.551037 196.28639L37.551037 201.78639Q38.519787 201.77077 39.06666 201.27077Q39.613537 200.75514 39.613537 199.98952Q39.613537 199.47389 39.332287 199.13014Q39.051037 198.77077 38.426037 198.59889ZM36.207287 198.47389Q35.25416 198.48952 34.75416 198.95827Q34.25416 199.42702 34.25416 200.09889Q34.25416 200.81764 34.78541 201.28639Q35.301037 201.75514 36.207287 201.75514L36.207287 198.47389ZM38.69166 195.17702L38.363537 192.97389Q39.00416 192.83327 39.332287 192.41139Q39.66041 191.97389 39.66041 191.19264Q39.66041 190.34889 39.34791 189.91139Q39.12916 189.63014 38.769787 189.63014Q38.519787 189.63014 38.34791 189.78639Q38.19166 189.94264 38.06666 190.52077Q37.47291 193.17702 36.988537 193.88014Q36.31666 194.86452 35.12916 194.86452Q34.051037 194.86452 33.31666 194.02077Q32.582287 193.16139 32.582287 191.38014Q32.582287 189.67702 33.144787 188.84889Q33.69166 188.02077 34.769787 187.70827L35.16041 189.77077Q34.676037 189.91139 34.426037 190.28639Q34.16041 190.64577 34.16041 191.33327Q34.16041 192.20827 34.394787 192.58327Q34.56666 192.83327 34.84791 192.83327Q35.082287 192.83327 35.238537 192.61452Q35.457287 192.31764 35.863537 190.56764Q36.25416 188.80202 36.832287 188.11452Q37.426037 187.42702 38.47291 187.42702Q39.613537 187.42702 40.44166 188.38014Q41.25416 189.33327 41.25416 191.19264Q41.25416 192.89577 40.56666 193.88014Q39.87916 194.86452 38.69166 195.17702ZM41.06666 179.30202L41.06666 181.48952L32.769787 181.48952L32.769787 179.45827L33.94166 179.45827Q33.113537 178.92702 32.84791 178.52077Q32.582287 178.09889 32.582287 177.56764Q32.582287 176.81764 32.988537 176.11452L34.91041 176.80202Q34.551037 177.34889 34.551037 177.83327Q34.551037 178.28639 34.801037 178.61452Q35.051037 178.92702 35.72291 179.11452Q36.37916 179.30202 38.50416 179.30202L41.06666 179.30202ZM38.426037 170.59889L38.78541 168.41139Q39.988537 168.83327 40.62916 169.73952Q41.25416 170.64577 41.25416 172.02077Q41.25416 174.17702 39.832287 175.22389Q38.707287 176.03639 36.97291 176.03639Q34.91041 176.03639 33.75416 174.95827Q32.582287 173.88014 32.582287 172.23952Q32.582287 170.38014 33.801037 169.31764Q35.019787 168.23952 37.551037 168.28639L37.551037 173.78639Q38.519787 173.77077 39.06666 173.27077Q39.613537 172.75514 39.613537 171.98952Q39.613537 171.47389 39.332287 171.13014Q39.051037 170.77077 38.426037 170.59889ZM36.207287 170.47389Q35.25416 170.48952 34.75416 170.95827Q34.25416 171.42702 34.25416 172.09889Q34.25416 172.81764 34.78541 173.28639Q35.301037 173.75514 36.207287 173.75514L36.207287 170.47389ZM41.06666 158.78639L41.06666 160.83327L39.84791 160.83327Q40.551037 161.33327 40.91041 162.03639Q41.25416 162.72389 41.25416 163.42702Q41.25416 164.84889 40.09791 165.88014Q38.94166 166.89577 36.87916 166.89577Q34.769787 166.89577 33.676037 165.91139Q32.582287 164.91139 32.582287 163.39577Q32.582287 162.00514 33.738537 160.98952L29.613539 160.98952L29.613539 158.78639L41.06666 158.78639ZM36.738537 164.64577Q38.06666 164.64577 38.66041 164.28639Q39.519787 163.75514 39.519787 162.80202Q39.519787 162.03639 38.87916 161.50514Q38.22291 160.97389 36.94166 160.97389Q35.519787 160.97389 34.894787 161.48952Q34.25416 162.00514 34.25416 162.81764Q34.25416 163.59889 34.87916 164.13014Q35.50416 164.64577 36.738537 164.64577ZM41.06666 150.94264L39.81666 150.94264Q40.488537 151.39577 40.87916 152.13014Q41.25416 152.86452 41.25416 153.69264Q41.25416 154.52077 40.894787 155.19264Q40.519787 155.84889 39.863537 156.14577Q39.19166 156.44264 38.019787 156.44264L32.769787 156.44264L32.769787 154.25514L36.582287 154.25514Q38.332287 154.25514 38.72291 154.13014Q39.113537 154.00514 39.34791 153.69264Q39.582287 153.36452 39.582287 152.88014Q39.582287 152.31764 39.269787 151.88014Q38.957287 151.42702 38.50416 151.27077Q38.051037 151.09889 36.269787 151.09889L32.769787 151.09889L32.769787 148.89577L41.06666 148.89577L41.06666 150.94264ZM35.22291 139.16139L35.613537 141.33327Q34.957287 141.44264 34.62916 141.83327Q34.301037 142.20827 34.301037 142.83327Q34.301037 143.64577 34.87916 144.14577Q35.44166 144.63014 36.769787 144.63014Q38.238537 144.63014 38.84791 144.13014Q39.457287 143.63014 39.457287 142.80202Q39.457287 142.17702 39.113537 141.78639Q38.75416 141.38014 37.87916 141.20827L38.25416 139.05202Q39.738537 139.39577 40.50416 140.34889Q41.25416 141.30202 41.25416 142.89577Q41.25416 144.72389 40.113537 145.80202Q38.957287 146.88014 36.926037 146.88014Q34.863537 146.88014 33.72291 145.80202Q32.582287 144.70827 32.582287 142.86452Q32.582287 141.34889 33.238537 140.45827Q33.87916 139.55202 35.22291 139.16139ZM32.769787 133.59889L34.519787 133.59889L34.519787 135.09889L37.863537 135.09889Q38.87916 135.09889 39.051037 135.05202Q39.207287 135.00514 39.31666 134.86452Q39.426037 134.70827 39.426037 134.48952Q39.426037 134.17702 39.22291 133.59889L40.926037 133.41139Q41.25416 134.17702 41.25416 135.14577Q41.25416 135.73952 41.051037 136.22389Q40.84791 136.69264 40.53541 136.92702Q40.22291 137.14577 39.676037 137.22389Q39.301037 137.30202 38.12916 137.30202L34.519787 137.30202L34.519787 138.30202L32.769787 138.30202L32.769787 137.30202L31.113539 137.30202L29.832289 135.09889L32.769787 135.09889L32.769787 133.59889ZM31.644789 132.39577L29.613539 132.39577L29.613539 130.20827L31.644789 130.20827L31.644789 132.39577ZM41.06666 132.39577L32.769787 132.39577L32.769787 130.20827L41.06666 130.20827L41.06666 132.39577ZM36.801037 128.91139Q35.707287 128.91139 34.69166 128.38014Q33.66041 127.833275 33.12916 126.8489Q32.582287 125.8489 32.582287 124.63015Q32.582287 122.75515 33.801037 121.552025Q35.019787 120.3489 36.894787 120.3489Q38.769787 120.3489 40.019787 121.56765Q41.25416 122.770775 41.25416 124.614525Q41.25416 125.75515 40.738537 126.802025Q40.22291 127.833275 39.22291 128.38014Q38.22291 128.91139 36.801037 128.91139ZM36.91041 126.6614Q38.144787 126.6614 38.801037 126.083275Q39.457287 125.489525 39.457287 124.63015Q39.457287 123.770775 38.801037 123.19265Q38.144787 122.5989 36.894787 122.5989Q35.676037 122.5989 35.019787 123.19265Q34.363537 123.770775 34.363537 124.63015Q34.363537 125.489525 35.019787 126.083275Q35.676037 126.6614 36.91041 126.6614ZM41.06666 110.8489L41.06666 113.052025L36.832287 113.052025Q35.488537 113.052025 35.09791 113.19265Q34.69166 113.333275 34.47291 113.645775Q34.25416 113.958275 34.25416 114.4114Q34.25416 114.9739 34.56666 115.427025Q34.87916 115.88015 35.394787 116.052025Q35.91041 116.2239 37.301037 116.2239L41.06666 116.2239L41.06666 118.4114L32.769787 118.4114L32.769787 116.38015L33.988537 116.38015Q32.582287 115.2864 32.582287 113.645775Q32.582287 112.9114 32.84791 112.31765Q33.09791 111.708275 33.50416 111.4114Q33.91041 111.0989 34.426037 110.9739Q34.94166 110.8489 35.91041 110.8489L41.06666 110.8489ZM41.06666 102.114525L32.769787 105.458275L32.769787 103.1614L37.00416 101.5989L38.41041 101.145775Q37.87916 100.958275 37.707287 100.9114Q37.34791 100.802025 37.00416 100.677025L32.769787 99.0989L32.769787 96.8489L41.06666 100.145775L41.06666 102.114525ZM35.301037 93.75515L34.94166 95.75515Q33.738537 95.4114 33.16041 94.5989Q32.582287 93.770775 32.582287 92.1614Q32.582287 90.69265 32.926037 89.9739Q33.269787 89.25515 33.81666 88.958275Q34.34791 88.6614 35.769787 88.6614L38.332287 88.69265Q39.426037 88.69265 39.957287 88.583275Q40.47291 88.4739 41.06666 88.19265L41.06666 90.364525Q40.84791 90.44265 40.41041 90.56765Q40.22291 90.63015 40.16041 90.645775Q40.707287 91.208275 40.988537 91.8489Q41.25416 92.489525 41.25416 93.2239Q41.25416 94.50515 40.56666 95.239525Q39.863537 95.9739 38.801037 95.9739Q38.09791 95.9739 37.551037 95.645775Q36.988537 95.302025 36.707287 94.708275Q36.41041 94.0989 36.19166 92.958275Q35.894787 91.4114 35.644787 90.81765L35.426037 90.81765Q34.801037 90.81765 34.53541 91.13015Q34.25416 91.44265 34.25416 92.31765Q34.25416 92.895775 34.488537 93.2239Q34.72291 93.552025 35.301037 93.75515ZM37.082287 90.81765Q37.22291 91.239525 37.426037 92.1614Q37.613537 93.06765 37.801037 93.3489Q38.09791 93.7864 38.56666 93.7864Q39.03541 93.7864 39.37916 93.44265Q39.707287 93.0989 39.707287 92.56765Q39.707287 91.9739 39.31666 91.427025Q39.019787 91.0364 38.582287 90.9114Q38.301037 90.81765 37.519787 90.81765L37.082287 90.81765ZM41.06666 86.395775L29.613539 86.395775L29.613539 84.208275L41.06666 84.208275L41.06666 86.395775ZM41.06666 76.94265L39.81666 76.94265Q40.488537 77.395775 40.87916 78.13015Q41.25416 78.864525 41.25416 79.69265Q41.25416 80.520775 40.894787 81.19265Q40.519787 81.8489 39.863537 82.145775Q39.19166 82.44265 38.019787 82.44265L32.769787 82.44265L32.769787 80.25515L36.582287 80.25515Q38.332287 80.25515 38.72291 80.13015Q39.113537 80.00515 39.34791 79.69265Q39.582287 79.364525 39.582287 78.88015Q39.582287 78.31765 39.269787 77.88015Q38.957287 77.427025 38.50416 77.270775Q38.051037 77.0989 36.269787 77.0989L32.769787 77.0989L32.769787 74.895775L41.06666 74.895775L41.06666 76.94265ZM38.426037 67.5989L38.78541 65.4114Q39.988537 65.833275 40.62916 66.739525Q41.25416 67.645775 41.25416 69.020775Q41.25416 71.177025 39.832287 72.2239Q38.707287 73.0364 36.97291 73.0364Q34.91041 73.0364 33.75416 71.958275Q32.582287 70.88015 32.582287 69.239525Q32.582287 67.38015 33.801037 66.31765Q35.019787 65.239525 37.551037 65.2864L37.551037 70.7864Q38.519787 70.770775 39.06666 70.270775Q39.613537 69.75515 39.613537 68.989525Q39.613537 68.4739 39.332287 68.13015Q39.051037 67.770775 38.426037 67.5989ZM36.207287 67.4739Q35.25416 67.489525 34.75416 67.958275Q34.25416 68.427025 34.25416 69.0989Q34.25416 69.81765 34.78541 70.2864Q35.301037 70.75515 36.207287 70.75515L36.207287 67.4739Z"
     fill-rule="nonzero"
     id="path55" />
  <path
     fill="#000000"
     d="M68.45 198.81563Q68.45 197.28438 68.7625 196.3625Q69.075 195.425 69.68437 194.925Q70.30937 194.425 71.24687 194.425Q71.93437 194.425 72.45 194.70625Q72.98125 194.9875 73.325 195.51875Q73.66875 196.03438 73.85625 196.78438Q74.04375 197.53438 74.04375 198.81563Q74.04375 200.33125 73.73125 201.25313Q73.43437 202.175 72.80937 202.69063Q72.2 203.19063 71.24687 203.19063Q70.0125 203.19063 69.29375 202.3Q68.45 201.2375 68.45 198.81563ZM69.52812 198.81563Q69.52812 200.925 70.02812 201.62813Q70.52812 202.33125 71.24687 202.33125Q71.98125 202.33125 72.46562 201.62813Q72.96562 200.925 72.96562 198.81563Q72.96562 196.69063 72.46562 196.00313Q71.98125 195.3 71.23125 195.3Q70.5125 195.3 70.075 195.90938Q69.52812 196.69063 69.52812 198.81563Z"
     fill-rule="nonzero"
     id="path57" />
  <path
     fill="#000000"
     d="M73.99687 163.83438L73.99687 164.85L68.30937 164.85Q68.30937 164.475 68.43437 164.11563Q68.65312 163.5375 69.12187 162.975Q69.60625 162.4125 70.5125 161.67813Q71.91875 160.52188 72.40312 159.85Q72.90312 159.17813 72.90312 158.58438Q72.90312 157.95938 72.45 157.5375Q71.99687 157.1 71.27812 157.1Q70.5125 157.1 70.05937 157.55313Q69.60625 158.00626 69.59062 158.81876L68.5125 158.70938Q68.62187 157.49063 69.34062 156.86563Q70.075 156.225 71.30937 156.225Q72.54375 156.225 73.2625 156.9125Q73.98125 157.6 73.98125 158.61563Q73.98125 159.13126 73.7625 159.63126Q73.55937 160.11563 73.05937 160.67813Q72.575 161.225 71.45 162.17813Q70.49687 162.975 70.21562 163.27188Q69.95 163.55313 69.77812 163.83438L73.99687 163.83438Z"
     fill-rule="nonzero"
     id="path59" />
  <path
     fill="#000000"
     d="M71.825 126.65L71.825 124.5875L68.10625 124.5875L68.10625 123.61875L72.02812 118.05625L72.8875 118.05625L72.8875 123.61875L74.04375 123.61875L74.04375 124.5875L72.8875 124.5875L72.8875 126.65L71.825 126.65ZM71.825 123.61875L71.825 119.75938L69.1375 123.61875L71.825 123.61875Z"
     fill-rule="nonzero"
     id="path61" />
  <path
     fill="#000000"
     d="M73.91875 81.96562L72.87187 82.04375Q72.73125 81.41875 72.48125 81.1375Q72.04375 80.68437 71.41875 80.68437Q70.91875 80.68437 70.52812 80.96562Q70.04375 81.34062 69.74687 82.04375Q69.46562 82.73125 69.45 84.0125Q69.825 83.43437 70.37187 83.15312Q70.93437 82.87187 71.54375 82.87187Q72.59062 82.87187 73.325 83.65312Q74.075 84.43437 74.075 85.65312Q74.075 86.46562 73.71562 87.16875Q73.37187 87.85625 72.7625 88.23125Q72.15312 88.59062 71.3875 88.59062Q70.05937 88.59062 69.23125 87.62187Q68.40312 86.65312 68.40312 84.43437Q68.40312 81.93437 69.325 80.80937Q70.12187 79.825 71.48125 79.825Q72.49687 79.825 73.1375 80.40312Q73.79375 80.96562 73.91875 81.96562ZM69.62187 85.66875Q69.62187 86.21562 69.84062 86.71562Q70.075 87.2 70.48125 87.46562Q70.90312 87.73125 71.37187 87.73125Q72.02812 87.73125 72.5125 87.2Q72.99687 86.65312 72.99687 85.73125Q72.99687 84.84062 72.5125 84.325Q72.04375 83.80937 71.325 83.80937Q70.60625 83.80937 70.10625 84.325Q69.62187 84.84062 69.62187 85.66875Z"
     fill-rule="nonzero"
     id="path63" />
  <path
     fill="#000000"
     d="M70.075 45.59375Q69.41875 45.34375 69.09062 44.90625Q68.77812 44.453125 68.77812 43.84375Q68.77812 42.90625 69.45 42.265625Q70.1375 41.625 71.24687 41.625Q72.37187 41.625 73.05937 42.28125Q73.74687 42.9375 73.74687 43.875Q73.74687 44.46875 73.43437 44.90625Q73.12187 45.34375 72.48125 45.59375Q73.27812 45.84375 73.68437 46.421875Q74.09062 47.0 74.09062 47.796875Q74.09062 48.890625 73.30937 49.640625Q72.54375 50.390625 71.2625 50.390625Q69.99687 50.390625 69.21562 49.640625Q68.43437 48.890625 68.43437 47.765625Q68.43437 46.921875 68.85625 46.359375Q69.29375 45.796875 70.075 45.59375ZM69.85625 43.796875Q69.85625 44.40625 70.24687 44.796875Q70.65312 45.1875 71.27812 45.1875Q71.8875 45.1875 72.27812 44.8125Q72.66875 44.421875 72.66875 43.859375Q72.66875 43.28125 72.2625 42.890625Q71.85625 42.484375 71.2625 42.484375Q70.65312 42.484375 70.24687 42.875Q69.85625 43.265625 69.85625 43.796875ZM69.52812 47.765625Q69.52812 48.21875 69.73125 48.640625Q69.95 49.0625 70.37187 49.296875Q70.79375 49.53125 71.27812 49.53125Q72.02812 49.53125 72.5125 49.046875Q73.0125 48.5625 73.0125 47.8125Q73.0125 47.046875 72.5125 46.546875Q72.0125 46.046875 71.24687 46.046875Q70.49687 46.046875 70.0125 46.546875Q69.52812 47.03125 69.52812 47.765625Z"
     fill-rule="nonzero"
     id="path65" />
  <path
     fill="#000000"
     d="M217.42863 219.05L217.42863 211.78438L218.53801 211.78438L218.53801 212.89375Q218.95988 212.1125 219.31926 211.87813Q219.67863 211.62813 220.11613 211.62813Q220.74113 211.62813 221.38176 212.01875L220.95988 213.15938Q220.50676 212.89375 220.05363 212.89375Q219.64738 212.89375 219.31926 213.14375Q219.00676 213.37813 218.86613 213.81563Q218.66301 214.47188 218.66301 215.25313L218.66301 219.05L217.42863 219.05ZM226.74113 219.05L225.50676 219.05L225.50676 211.20625Q225.06926 211.62813 224.33488 212.06563Q223.61613 212.4875 223.05363 212.69063L223.05363 211.50313Q224.08488 211.01875 224.85051 210.33125Q225.63176 209.64375 225.94426 208.9875L226.74113 208.9875L226.74113 219.05Z"
     fill-rule="nonzero"
     id="path67" />
  <path
     fill="#000000"
     d="M427.90625 219.05L427.90625 211.78438L429.01562 211.78438L429.01562 212.89375Q429.4375 212.1125 429.79688 211.87813Q430.15625 211.62813 430.59375 211.62813Q431.21875 211.62813 431.85938 212.01875L431.4375 213.15938Q430.98438 212.89375 430.53125 212.89375Q430.125 212.89375 429.79688 213.14375Q429.48438 213.37813 429.34375 213.81563Q429.14062 214.47188 429.14062 215.25313L429.14062 219.05L427.90625 219.05ZM439.04688 217.8625L439.04688 219.05L432.42188 219.05Q432.40625 218.6125 432.5625 218.19063Q432.82812 217.51875 433.375 216.8625Q433.9375 216.20625 434.98438 215.34688Q436.625 214.00313 437.1875 213.22188Q437.76562 212.44063 437.76562 211.7375Q437.76562 211.00313 437.23438 210.50313Q436.71875 210.00313 435.89062 210.00313Q435.0 210.00313 434.45312 210.53438Q433.92188 211.06563 433.92188 212.01875L432.65625 211.87813Q432.78125 210.47188 433.625 209.7375Q434.48438 208.9875 435.90625 208.9875Q437.35938 208.9875 438.1875 209.78438Q439.03125 210.58125 439.03125 211.76875Q439.03125 212.37813 438.78125 212.95625Q438.54688 213.53438 437.96875 214.175Q437.40625 214.81563 436.07812 215.94063Q434.96875 216.8625 434.65625 217.20625Q434.34375 217.53438 434.14062 217.8625L439.04688 217.8625Z"
     fill-rule="nonzero"
     id="path69" />
  <path
     fill="#000000"
     d="M638.38385 219.05L638.38385 211.78438L639.4932 211.78438L639.4932 212.89375Q639.9151 212.1125 640.2745 211.87813Q640.63385 211.62813 641.07135 211.62813Q641.69635 211.62813 642.337 212.01875L641.9151 213.15938Q641.462 212.89375 641.00885 212.89375Q640.6026 212.89375 640.2745 213.14375Q639.962 213.37813 639.82135 213.81563Q639.6182 214.47188 639.6182 215.25313L639.6182 219.05L638.38385 219.05ZM643.07135 216.40938L644.2901 216.2375Q644.50885 217.28438 645.00885 217.75313Q645.5245 218.20625 646.25885 218.20625Q647.13385 218.20625 647.7276 217.6125Q648.32135 217.00313 648.32135 216.1125Q648.32135 215.26875 647.75885 214.72188Q647.212 214.175 646.3682 214.175Q646.00885 214.175 645.4932 214.3L645.63385 213.22188Q645.75885 213.2375 645.82135 213.2375Q646.6182 213.2375 647.2432 212.83125Q647.8682 212.425 647.8682 211.56563Q647.8682 210.89375 647.4151 210.45625Q646.962 210.00313 646.2276 210.00313Q645.50885 210.00313 645.0245 210.45625Q644.5557 210.89375 644.4151 211.8L643.19635 211.58125Q643.4151 210.34688 644.212 209.675Q645.00885 208.9875 646.19635 208.9875Q647.0245 208.9875 647.712 209.34688Q648.3995 209.69063 648.75885 210.3Q649.13385 210.90938 649.13385 211.59688Q649.13385 212.2375 648.7901 212.76875Q648.44635 213.3 647.75885 213.62813Q648.6495 213.83125 649.13385 214.47188Q649.63385 215.1125 649.63385 216.09688Q649.63385 217.40938 648.6651 218.31563Q647.712 219.22188 646.25885 219.22188Q644.9307 219.22188 644.0557 218.44063Q643.19635 217.65938 643.07135 216.40938Z"
     fill-rule="nonzero"
     id="path71" />
  <g
     id="g922"
     transform="translate(317.34375)">
    <path
       style="fill:#1d6b99;fill-opacity:1"
       id="path73"
       fill-rule="nonzero"
       d="m 330,16.95 c 0,-0.552285 0.44772,-1 1,-1 h 10 c 0.55228,0 1,0.447715 1,1 v 10 c 0,0.552285 -0.44772,1 -1,1 h -10 c -0.55228,0 -1,-0.447715 -1,-1 z"
       fill="#4285f4" />
    <path
       id="path75"
       fill-rule="nonzero"
       d="m 352.0625,26.95 h -1.14062 V 16.934376 h 1.21874 v 3.5625 q 0.78126,-0.96875 2,-0.96875 0.67188,0 1.26563,0.265624 0.59375,0.265626 0.98437,0.765626 0.39063,0.484374 0.60938,1.171874 0.21875,0.6875 0.21875,1.484376 0,1.859374 -0.9375,2.890624 -0.92187,1.015626 -2.20313,1.015626 -1.28124,0 -2.01562,-1.078126 z m -0.0156,-3.6875 q 0,1.3125 0.35937,1.890626 0.57813,0.953124 1.5625,0.953124 0.8125,0 1.39063,-0.703124 0.59374,-0.703126 0.59374,-2.09375 0,-1.421876 -0.5625,-2.09375 -0.5625,-0.671876 -1.35937,-0.671876 -0.8125,0 -1.40625,0.703126 -0.57812,0.6875 -0.57812,2.015624 z m 11.17187,3.6875 h -1.23437 v -7.84375 q -0.4375,0.421876 -1.17188,0.859376 -0.71875,0.421874 -1.28125,0.625 v -1.1875 q 1.03125,-0.484376 1.79687,-1.171876 0.78126,-0.6875 1.09376,-1.34375 h 0.79687 z"
       fill="#1a1a1a" />
    <path
       style="fill:#cf4f3e;fill-opacity:1"
       id="path77"
       fill-rule="nonzero"
       d="m 382,16.95 c 0,-0.552285 0.44772,-1 1,-1 h 10 c 0.55228,0 1,0.447715 1,1 v 10 c 0,0.552285 -0.44772,1 -1,1 h -10 c -0.55228,0 -1,-0.447715 -1,-1 z"
       fill="#ea4335" />
    <path
       id="path79"
       fill-rule="nonzero"
       d="m 404.0625,26.95 h -1.14062 V 16.934376 h 1.21874 v 3.5625 q 0.78126,-0.96875 2,-0.96875 0.67188,0 1.26563,0.265624 0.59375,0.265626 0.98437,0.765626 0.39063,0.484374 0.60938,1.171874 0.21875,0.6875 0.21875,1.484376 0,1.859374 -0.9375,2.890624 -0.92187,1.015626 -2.20313,1.015626 -1.28124,0 -2.01562,-1.078126 z m -0.0156,-3.6875 q 0,1.3125 0.35937,1.890626 0.57813,0.953124 1.5625,0.953124 0.8125,0 1.39063,-0.703124 0.59374,-0.703126 0.59374,-2.09375 0,-1.421876 -0.5625,-2.09375 -0.5625,-0.671876 -1.35937,-0.671876 -0.8125,0 -1.40625,0.703126 -0.57812,0.6875 -0.57812,2.015624 z m 13,2.5 V 26.95 h -6.625 q -0.0156,-0.4375 0.14062,-0.859374 0.26562,-0.671876 0.8125,-1.328126 0.5625,-0.65625 1.60938,-1.515624 1.64062,-1.34375 2.20312,-2.125 0.57812,-0.78125 0.57812,-1.484376 0,-0.734374 -0.53124,-1.234374 -0.51563,-0.5 -1.34376,-0.5 -0.89062,0 -1.4375,0.53125 -0.53124,0.53125 -0.53124,1.484374 l -1.26563,-0.140624 q 0.125,-1.40625 0.96875,-2.140626 0.85938,-0.75 2.28125,-0.75 1.45313,0 2.28125,0.796876 0.84375,0.796874 0.84375,1.984374 0,0.609376 -0.25,1.1875 -0.23437,0.578126 -0.8125,1.21875 -0.5625,0.640626 -1.89063,1.765626 -1.10937,0.921874 -1.42187,1.265624 -0.3125,0.328126 -0.51563,0.65625 z"
       fill="#1a1a1a" />
    <path
       style="fill:#f0af07;fill-opacity:1"
       id="path81"
       fill-rule="nonzero"
       d="m 434,16.95 c 0,-0.552285 0.44772,-1 1,-1 h 10 c 0.55228,0 1,0.447715 1,1 v 10 c 0,0.552285 -0.44772,1 -1,1 h -10 c -0.55228,0 -1,-0.447715 -1,-1 z"
       fill="#fbbc04" />
    <path
       id="path83"
       fill-rule="nonzero"
       d="m 456.0625,26.95 h -1.14062 V 16.934376 h 1.21874 v 3.5625 q 0.78126,-0.96875 2,-0.96875 0.67188,0 1.26563,0.265624 0.59375,0.265626 0.98437,0.765626 0.39063,0.484374 0.60938,1.171874 0.21875,0.6875 0.21875,1.484376 0,1.859374 -0.9375,2.890624 -0.92187,1.015626 -2.20313,1.015626 -1.28124,0 -2.01562,-1.078126 z m -0.0156,-3.6875 q 0,1.3125 0.35937,1.890626 0.57813,0.953124 1.5625,0.953124 0.8125,0 1.39063,-0.703124 0.59374,-0.703126 0.59374,-2.09375 0,-1.421876 -0.5625,-2.09375 -0.5625,-0.671876 -1.35937,-0.671876 -0.8125,0 -1.40625,0.703126 -0.57812,0.6875 -0.57812,2.015624 z m 6.54687,1.046876 1.21875,-0.171876 q 0.21875,1.046876 0.71875,1.515626 0.51563,0.453124 1.25,0.453124 0.875,0 1.46875,-0.59375 0.59375,-0.609374 0.59375,-1.5 0,-0.84375 -0.5625,-1.390624 -0.54687,-0.546876 -1.39063,-0.546876 -0.35937,0 -0.875,0.125 l 0.14063,-1.078124 q 0.125,0.01562 0.1875,0.01562 0.79687,0 1.42187,-0.40625 0.625,-0.40625 0.625,-1.265624 0,-0.671876 -0.45312,-1.109376 -0.45312,-0.453124 -1.1875,-0.453124 -0.71875,0 -1.20312,0.453124 -0.46876,0.4375 -0.60938,1.34375 l -1.21875,-0.21875 q 0.21875,-1.234374 1.01563,-1.90625 0.79687,-0.6875 1.98437,-0.6875 0.82813,0 1.51563,0.359376 0.6875,0.34375 1.04687,0.953124 0.375,0.609376 0.375,1.296876 0,0.640624 -0.34375,1.171874 -0.34375,0.53125 -1.03125,0.859376 0.89063,0.203124 1.375,0.84375 0.5,0.640624 0.5,1.625 0,1.3125 -0.96875,2.21875 -0.95312,0.90625 -2.40625,0.90625 -1.32813,0 -2.20313,-0.78125 -0.85937,-0.78125 -0.98437,-2.03125 z"
       fill="#1a1a1a" />
  </g>
  <text
     xml:space="preserve"
     style="font-weight:bold;font-size:16px;line-height:1.25;font-family:Arial;-inkscape-font-specification:'Arial Bold';letter-spacing:0px;word-spacing:0px"
     x="537.13696"
     y="26.090626"
     id="text941"><tspan
       sodipodi:role="line"
       id="tspan939"
       x="537.13696"
       y="26.090626"
       style="font-size:16px;fill:#000000;fill-opacity:1">Band names</tspan></text>
  <text
     xml:space="preserve"
     style="font-weight:bold;font-size:16px;line-height:1.25;font-family:Arial;-inkscape-font-specification:'Arial Bold';letter-spacing:0px;word-spacing:0px"
     x="304.0195"
     y="261.04999"
     id="text941-2"><tspan
       sodipodi:role="line"
       id="tspan939-0"
       x="304.0195"
       y="261.04999"
       style="font-size:16px;fill:#000000;fill-opacity:1">Regions by feature property value</tspan></text>
</svg>
